<?xml version="1.0" standalone="no"?>
<!DOCTYPE svg PUBLIC "-//W3C//DTD SVG 20010904//EN"
 "http://www.w3.org/TR/2001/REC-SVG-20010904/DTD/svg10.dtd">
<svg version="1.0" xmlns="http://www.w3.org/2000/svg"
 viewBox="0 0 2600.000000 2600.000000"
 preserveAspectRatio="xMidYMid meet">
<metadata>
Created by potrace 1.13, written by Peter Selinger 2001-2015
</metadata>
<g transform="translate(0.000000,2600.000000) scale(0.100000,-0.100000)"
fill="#000000" stroke="none">
<path d="M11625 20579 c-875 -81 -1634 -405 -2285 -975 -160 -139 -234 -222
-259 -288 -82 -221 81 -460 314 -459 109 1 169 28 273 127 181 170 301 266
477 383 431 287 876 449 1435 525 146 19 614 16 770 -5 724 -102 1316 -383
1843 -875 59 -55 127 -110 151 -121 133 -65 286 -39 390 64 102 103 128 265
61 393 -38 76 -255 279 -470 442 -564 428 -1204 686 -1925 775 -150 19 -630
28 -775 14z"/>
<path d="M11695 19203 c-373 -44 -617 -112 -910 -252 -240 -115 -436 -249
-616 -419 -76 -72 -102 -104 -124 -154 -35 -77 -40 -174 -11 -256 24 -70 100
-153 174 -189 49 -24 69 -28 142 -28 111 0 170 27 277 126 409 380 977 562
1548 495 426 -50 779 -210 1086 -492 112 -103 168 -129 279 -129 71 0 94 4
140 26 70 33 136 99 169 169 35 74 36 200 3 273 -51 114 -322 345 -577 492
-301 173 -652 288 -1015 330 -112 14 -478 19 -565 8z"/>
<path d="M11210 16509 c-703 -6 -820 -10 -1240 -45 -983 -81 -1629 -237 -2255
-544 -607 -299 -1036 -673 -1469 -1280 -354 -497 -557 -935 -642 -1385 -24
-125 -29 -400 -10 -517 47 -289 167 -502 305 -542 49 -14 195 -16 1355 -16
855 0 1314 4 1338 10 57 16 130 70 160 120 38 62 48 123 35 228 -18 151 -14
648 6 792 54 383 163 606 328 668 143 53 741 119 1409 154 319 17 2503 17
2825 0 627 -32 1237 -97 1404 -149 73 -23 157 -101 204 -191 132 -251 181
-661 146 -1222 -12 -183 -12 -186 10 -237 14 -30 43 -71 71 -97 87 -81 -13
-76 1456 -76 l1303 0 57 21 c103 39 179 144 243 335 45 134 62 247 61 424 0
455 -180 950 -548 1510 -453 690 -908 1108 -1559 1434 -585 292 -1476 489
-2658 587 -190 16 -1433 25 -2335 18z"/>
<path d="M10675 13749 c-217 -7 -662 -36 -836 -55 l-56 -6 -38 -142 c-151
-561 -419 -1161 -756 -1689 -120 -188 -200 -299 -394 -552 -383 -497 -627
-874 -844 -1305 -432 -857 -624 -1665 -691 -2910 -5 -107 -12 -222 -14 -256
-6 -80 14 -173 48 -223 37 -53 105 -97 169 -111 37 -7 1450 -9 4713 -8 l4660
3 59 30 c71 36 118 94 141 170 16 57 13 159 -16 600 -110 1643 -503 2684
-1500 3980 -206 268 -326 437 -444 626 -320 512 -556 1038 -714 1589 l-57 198
-50 6 c-238 28 -1069 72 -1097 58 -5 -2 -8 -298 -8 -658 l0 -654 -1005 0
-1005 0 0 660 c0 363 -3 659 -7 658 -5 0 -120 -5 -258 -9z m1465 -2540 c130
-16 225 -37 340 -76 461 -155 836 -515 1020 -979 126 -317 143 -720 44 -1062
-78 -268 -224 -513 -429 -717 -646 -643 -1698 -640 -2344 6 -380 380 -553 914
-466 1444 43 262 138 491 298 715 81 113 259 289 377 373 115 81 321 186 447
227 86 27 259 64 343 73 79 8 291 6 370 -4z"/>
</g>
</svg>
